HIERARCHY
ROOT RootJoint
{
    OFFSET   0.000000   0.000000   0.000000
    CHANNELS 6 Xposition Yposition Zposition Xrotation Yrotation Zrotation
    JOINT pelvis_lowerback
    {
        OFFSET   0.000000   0.093605   0.000000
        CHANNELS 3 Xrotation Yrotation Zrotation
        JOINT lowerback_torso
        {
            OFFSET   0.000000   0.100000   0.000000
            CHANNELS 3 Xrotation Yrotation Zrotation
            JOINT torso_head
            {
                OFFSET   0.000000   0.282350   0.000000
                CHANNELS 3 Xrotation Yrotation Zrotation
                End Site
                {
                    OFFSET   0.000000   0.192650   0.000000
                }
            }
            JOINT rTorso_Clavicle
            {
                OFFSET  -0.001000   0.157500   0.000000
                CHANNELS 3 Xrotation Yrotation Zrotation
                JOINT rShoulder
                {
                    OFFSET  -0.117647   0.000000   0.000000
                    CHANNELS 3 Xrotation Yrotation Zrotation
                    JOINT rElbow
                    {
                        OFFSET  -0.245000   0.000000   0.000000
                        CHANNELS 3 Xrotation Yrotation Zrotation
                        JOINT rWrist
                        {
                            OFFSET  -0.240000   0.000000   0.000000
                            CHANNELS 3 Xrotation Yrotation Zrotation
                            End Site
                            {
                                OFFSET  -0.116353  -0.002500   0.000000
                            }
                        }
                    }
                }
            }
            JOINT lTorso_Clavicle
            {
                OFFSET   0.001000   0.157500   0.000000
                CHANNELS 3 Xrotation Yrotation Zrotation
                JOINT lShoulder
                {
                    OFFSET   0.117647   0.000000   0.000000
                    CHANNELS 3 Xrotation Yrotation Zrotation
                    JOINT lElbow
                    {
                        OFFSET   0.245000   0.000000   0.000000
                        CHANNELS 3 Xrotation Yrotation Zrotation
                        JOINT lWrist
                        {
                            OFFSET   0.240000   0.000000   0.000000
                            CHANNELS 3 Xrotation Yrotation Zrotation
                            End Site
                            {
                                OFFSET   0.116353  -0.002500   0.000000
                            }
                        }
                    }
                }
            }
        }
    }
    JOINT rHip
    {
        OFFSET  -0.100000  -0.051395   0.000000
        CHANNELS 3 Xrotation Yrotation Zrotation
        JOINT rKnee
        {
            OFFSET   0.000000  -0.410000   0.000000
            CHANNELS 3 Xrotation Yrotation Zrotation
            JOINT rAnkle
            {
                OFFSET   0.000000  -0.390000   0.000000
                CHANNELS 3 Xrotation Yrotation Zrotation
                JOINT rToeJoint
                {
                    OFFSET   0.000000  -0.050000   0.130000
                    CHANNELS 3 Xrotation Yrotation Zrotation
                    End Site
                    {
                        OFFSET  -0.010000   0.002000   0.060000
                    }
                }
            }
        }
    }
    JOINT lHip
    {
        OFFSET   0.100000  -0.051395   0.000000
        CHANNELS 3 Xrotation Yrotation Zrotation
        JOINT lKnee
        {
            OFFSET   0.000000  -0.410000   0.000000
            CHANNELS 3 Xrotation Yrotation Zrotation
            JOINT lAnkle
            {
                OFFSET   0.000000  -0.390000   0.000000
                CHANNELS 3 Xrotation Yrotation Zrotation
                JOINT lToeJoint
                {
                    OFFSET   0.000000  -0.050000   0.130000
                    CHANNELS 3 Xrotation Yrotation Zrotation
                    End Site
                    {
                        OFFSET   0.010000   0.002000   0.060000
                    }
                }
            }
        }
    }
}
MOTION
Frames: 17
Frame Time:   0.008333
 -2.409375   0.911333   4.376123   1.388514   3.298644  -1.641487  -0.759278  -5.523027   1.357457  -1.110681  -3.424102   4.327549  -0.857709   0.754256   1.771885   3.050902  -6.063390   5.267822  11.621043  11.853046  48.857149   0.000140  14.861826  -0.000324  10.389997   1.862798   1.809245   2.485681  -0.848048  -4.601031  10.581874 -23.514729 -52.559422  -0.000097 -19.548207   0.003220   9.671922  -3.859478  -5.348788 -13.877380  -0.386904   0.294842  12.918381   0.001178   0.000281  -2.313103  -6.799627  -1.229780   0.077841   0.000335   0.000448  13.444593  -2.817567   7.117066  21.990697  -0.009896  -0.000323   7.456792  -1.040409  -4.084661 -37.752022  -0.000602  -0.000857
 -2.411729   0.912175   4.382538   1.339739   3.335634  -1.613837  -0.741474  -5.461492   1.428112  -1.108119  -3.431711   4.308646  -0.970062   0.715663   1.733747   3.039060  -6.077527   5.221120  11.457298  11.755124  48.825628   0.000080  14.906271  -0.000210  10.329098   1.798319   1.853782   2.534019  -0.789663  -4.597205  10.650208 -23.097422 -52.653255   0.000059 -19.250097   0.003670   9.665891  -3.888713  -5.409356 -13.259134  -0.397253   0.487635  12.662198   0.001416   0.000090  -2.460300  -6.618463  -1.620226   0.202888   0.000484   0.000620  12.678175  -2.789741   7.248708  24.247131  -0.010013   0.004625   7.846403  -1.056674  -4.169541 -34.400481  -0.005760   0.008491
 -2.413997   0.912964   4.388978   1.248274   3.363300  -1.575912  -0.718150  -5.366814   1.484506  -1.079435  -3.416859   4.284023  -1.069903   0.680443   1.697770   3.029838  -6.093799   5.169772  11.306032  11.662252  48.794049   0.000031  14.949083  -0.000138  10.269778   1.748292   1.899461   2.596509  -0.717514  -4.586694  10.732620 -22.693895 -52.735658   0.000177 -18.962870   0.004069   9.663344  -3.886726  -5.463173 -12.599249  -0.390011   0.668518  12.413131   0.001579  -0.000062  -2.612249  -6.442043  -1.994286   0.311699   0.000566   0.000720  11.925267  -2.752554   7.357267  26.492856  -0.009479   0.008645   8.218943  -1.070099  -4.248716 -31.313560  -0.008173   0.016070
 -2.416183   0.913678   4.395439   1.140718   3.388687  -1.529627  -0.703704  -5.257686   1.528504  -1.045730  -3.383428   4.255813  -1.161567   0.648228   1.663295   3.022780  -6.110836   5.115263  11.166959  11.573710  48.760566  -0.000009  14.988367  -0.000093  10.213459   1.699166   1.940989   2.672220  -0.632209  -4.570948  10.826995 -22.305677 -52.810172   0.000272 -18.688051   0.004395   9.663816  -3.853012  -5.524245 -11.933733  -0.380287   0.834322  12.186273   0.001655  -0.000160  -2.759263  -6.275372  -2.345781   0.409901   0.000603   0.000767  11.201092  -2.719663   7.448089  28.605724  -0.008536   0.011416   8.568029  -1.082980  -4.322726 -28.484854  -0.008640   0.021385
 -2.418293   0.914305   4.401905   1.024788   3.419205  -1.478786  -0.697675  -5.141748   1.563909  -1.013532  -3.337909   4.225965  -1.247549   0.618483   1.630533   3.016366  -6.127256   5.059106  11.038043  11.490059  48.725517  -0.000041  15.024629  -0.000065  10.159801   1.649330   1.975880   2.755877  -0.539229  -4.551967  10.928219 -21.934583 -52.878043   0.000351 -18.426313   0.004638   9.666710  -3.794435  -5.591841 -11.272905  -0.370334   0.988150  11.985378   0.001658  -0.000227  -2.897675  -6.118605  -2.674948   0.499458   0.000609   0.000782  10.503032  -2.692440   7.528068  30.574501  -0.007371   0.013237   8.893622  -1.095310  -4.391880 -25.893246  -0.007943   0.024859
 -2.420328   0.914843   4.408371   0.903432   3.457535  -1.425846  -0.698852  -5.022520   1.593294  -0.984687  -3.284295   4.195800  -1.328500   0.590955   1.599585   3.009649  -6.142103   5.002647  10.917676  11.411768  48.689630  -0.000064  15.058434  -0.000050  10.108579   1.600152   2.003951   2.843212  -0.442751  -4.531309  11.032115 -21.581907 -52.940331   0.000416 -18.178211   0.004798   9.671412  -3.718654  -5.663246 -10.620588  -0.360365   1.132760  11.811317   0.001606  -0.000275  -3.026176  -5.971250  -2.982934   0.581417   0.000594   0.000778   9.829535  -2.670654   7.600458  32.404704  -0.006111   0.014338   9.197027  -1.107029  -4.456477 -23.518985  -0.006599   0.026866
 -2.422291   0.915291   4.414832   0.778522   3.503879  -1.372348  -0.706569  -4.902106   1.618347  -0.959979  -3.225163   4.166183  -1.404697   0.565474   1.570470   3.002149  -6.154879   4.946981  10.804701  11.339038  48.653648  -0.000081  15.090216  -0.000041  10.059626   1.553143   2.025965   2.931386  -0.345490  -4.510131  11.135854 -21.248171 -52.997972   0.000470 -17.943922   0.004877   9.677388  -3.632009  -5.736378  -9.978701  -0.350463   1.270176  11.663603   0.001513  -0.000306  -3.144508  -5.832798  -3.270996   0.656548   0.000566   0.000761   9.180005  -2.653742   7.666512  34.104715  -0.004848   0.014878   9.479686  -1.118133  -4.516816 -21.343971  -0.004948   0.027713
 -2.424171   0.915783   4.421046   0.616235   3.657708  -1.319834  -0.618172  -4.761416   1.651697  -0.968471  -3.221573   4.116539  -1.519256   0.495314   1.586189   3.008164  -6.130252   4.890965  10.711149  11.247679  48.633329  -0.000151  15.196373  -0.000142   9.990253   1.491437   2.035486   2.961245  -0.241806  -4.563569  11.186859 -20.809528 -52.983620   0.000638 -17.711968   0.005346   9.679125  -3.588127  -5.804953  -9.255640  -0.360347   1.403358  11.438407   0.001544  -0.000542  -3.313854  -5.643928  -3.579484   0.817102   0.000669   0.001087   8.242665  -2.575090   7.762659  36.587578  -0.001445   0.020866   9.011356  -0.886839  -4.552365 -19.327834  -0.004151   0.034951
 -2.425943   0.916270   4.427298   0.429902   3.795756  -1.242446  -0.537986  -4.594291   1.660613  -0.965760  -3.197075   4.056991  -1.623052   0.429332   1.602416   3.013289  -6.104150   4.833253  10.623187  11.164046  48.614082  -0.000211  15.297613  -0.000241   9.924626   1.448858   2.048793   2.994635  -0.132926  -4.610424  11.241962 -20.391190 -52.962313   0.000766 -17.491356   0.005689   9.683390  -3.533622  -5.840560  -8.501437  -0.354817   1.508532  11.203745   0.001567  -0.000729  -3.493699  -5.461378  -3.874733   0.958736   0.000719   0.001275   7.331740  -2.485273   7.825205  39.028744   0.001966   0.025159   8.575187  -0.667743  -4.583688 -17.526926  -0.002633   0.039070
 -2.427622   0.916712   4.433591   0.240555   3.923539  -1.149863  -0.477041  -4.419684   1.654641  -0.966009  -3.156652   3.991870  -1.719402   0.368389   1.616147   3.015937  -6.077583   4.772804  10.539691  11.087130  48.592821  -0.000263  15.393152  -0.000318   9.862103   1.414840   2.058845   3.035914  -0.019237  -4.648518  11.303290 -19.993278 -52.940311   0.000860 -17.281806   0.005900   9.689309  -3.466167  -5.872583  -7.748686  -0.346042   1.592967  10.979717   0.001558  -0.000844  -3.672248  -5.288775  -4.152998   1.086564   0.000731   0.001363   6.463432  -2.399098   7.868377  41.327479   0.004855   0.027548   8.169150  -0.463250  -4.611153 -15.879831  -0.000948   0.040795
 -2.429215   0.917139   4.439869   0.066591   3.964082  -1.064181  -0.436424  -4.216195   1.653422  -0.976033  -3.085132   3.931135  -1.810848   0.313035   1.628610   3.008707  -6.041425   4.710525  10.454199  11.021334  48.566873  -0.000309  15.485211  -0.000356   9.802622   1.392676   2.056960   3.087566   0.101717  -4.684358  11.372209 -19.613321 -52.920810   0.000910 -17.081602   0.005950   9.697083  -3.382129  -5.906429  -7.012533  -0.391030   1.668548  10.755155   0.001551  -0.000659  -3.953151  -5.188500  -4.410700   0.413844  -0.000085   0.000577   5.641421  -2.308051   7.894963  43.470088   0.006378   0.027318   7.790089  -0.272181  -4.635345 -14.371959   0.000240   0.039925
 -2.430755   0.917558   4.446086  -0.086017   3.929972  -0.988472  -0.411535  -4.000624   1.653467  -0.996246  -2.992953   3.877498  -1.898163   0.261955   1.640953   2.991031  -5.995667   4.650366  10.365020  10.967595  48.540098  -0.000347  15.575264  -0.000360   9.745308   1.389093   2.043461   3.145995   0.225607  -4.716197  11.445998 -19.251745 -52.902552   0.000920 -16.890789   0.005845   9.706465  -3.283225  -5.944115  -6.293639  -0.439065   1.745549  10.512158   0.001565  -0.000345  -4.316554  -5.094744  -4.634704   0.357069  -0.000106   0.000462   4.854333  -2.222749   7.914457  45.465858   0.006678   0.025430   7.436099  -0.093814  -4.656444 -12.991889   0.000821   0.037402
 -2.432249   0.917924   4.452243  -0.223940   3.859801  -0.911259  -0.395933  -3.790843   1.644844  -1.022624  -2.895380   3.825443  -1.980936   0.214081   1.652366   2.967136  -5.945417   4.592956  10.274970  10.923179  48.515440  -0.000376  15.662956  -0.000339   9.689618   1.404323   2.024082   3.205626   0.346762  -4.740537  11.520207 -18.910171 -52.883712   0.000907 -16.710486   0.005621   9.716709  -3.176646  -5.984838  -5.597254  -0.466107   1.816694  10.265026   0.001570  -0.000056  -4.662358  -4.984401  -4.841841   0.312809  -0.000110   0.000370   4.100245  -2.148047   7.928312  47.325440   0.006294   0.023009   7.105388   0.072694  -4.674733 -11.729611   0.001010   0.034237
 -2.433638   0.918315   4.457998  -0.300224   3.792991  -0.813498  -0.332377  -3.559135   1.643243  -1.103451  -2.848731   3.734671  -2.060928   0.138487   1.689998   2.973529  -5.812194   4.567074  10.167507  10.872714  48.463635  -0.000431  15.784831  -0.000425   9.623545   1.400714   2.016148   3.220457   0.496311  -4.800814  11.519157 -18.462134 -52.849392   0.000959 -16.506923   0.005784   9.721671  -3.121507  -6.015194  -4.959731  -0.533449   1.843445   9.948813   0.001628   0.000351  -4.928359  -4.833369  -4.988801   0.270295  -0.000097   0.000297   3.162352  -2.006879   7.914661  49.169749   0.007068   0.021978   6.357342   0.497076  -4.576136 -10.611633   0.000277   0.033649
 -2.434958   0.918676   4.463568  -0.377849   3.711682  -0.707493  -0.237923  -3.325489   1.636580  -1.164567  -2.793364   3.640966  -2.132391   0.065851   1.725028   2.965532  -5.669348   4.536997  10.055024  10.836092  48.411375  -0.000469  15.904235  -0.000520   9.560352   1.419348   2.000857   3.228440   0.633655  -4.853918  11.514522 -18.043081 -52.811573   0.000946 -16.316549   0.005727   9.725290  -3.066638  -6.015945  -4.331905  -0.586122   1.855830   9.624762   0.001659   0.000690  -5.172888  -4.681297  -5.127316   0.237444  -0.000084   0.000238   2.200398  -1.867726   7.883404  50.876928   0.007563   0.020559   5.652491   0.894841  -4.478038  -9.625764  -0.000063   0.031997
 -2.436225   0.918982   4.469030  -0.461385   3.616318  -0.602617  -0.126138  -3.094549   1.629294  -1.204677  -2.729837   3.549920  -2.194493  -0.001819   1.757179   2.950041  -5.526492   4.502578   9.943278  10.807479  48.358654  -0.000491  16.018930  -0.000600   9.499757   1.453218   1.977290   3.236094   0.762180  -4.900443  11.510680 -17.651190 -52.774884   0.000893 -16.138561   0.005519   9.729014  -3.011949  -6.012044  -3.713371  -0.624685   1.864921   9.313424   0.001651   0.000945  -5.412200  -4.529418  -5.256220   0.211604  -0.000072   0.000190   1.242883  -1.740492   7.846695  52.448901   0.007644   0.018795   4.992704   1.264792  -4.381445  -8.727118  -0.000258   0.029760
 -2.437448   0.919226   4.474424  -0.550137   3.507456  -0.503190  -0.005419  -2.868825   1.622939  -1.228355  -2.660956   3.463515  -2.249028  -0.064769   1.787091   2.931476  -5.388125   4.465797   9.835629  10.783463  48.306185  -0.000499  16.127545  -0.000653   9.441801   1.493788   1.947741   3.246073   0.884766  -4.942553  11.509639 -17.283484 -52.740482   0.000816 -15.971310   0.005222   9.733224  -2.954571  -6.010620  -3.104629  -0.650348   1.875429   9.020738   0.001612   0.001125  -5.652317  -4.377545  -5.374504   0.190757  -0.000061   0.000152   0.301608  -1.626119   7.810665  53.896662   0.007369   0.016855   4.375304   1.608961  -4.286863  -7.906436  -0.000399   0.027209
